<mxfile host="app.diagrams.net" agent="Mozilla/5.0 (Windows NT 10.0; Win64; x64) AppleWebKit/537.36 (KHTML, like Gecko) Chrome/133.0.0.0 Safari/537.36" version="26.0.11">
  <diagram name="Side-1" id="qg11AkM4cfyNhcm5he1_">
    <mxGraphModel dx="1323" dy="687" grid="1" gridSize="10" guides="1" tooltips="1" connect="1" arrows="1" fold="1" page="1" pageScale="1" pageWidth="1169" pageHeight="1654" math="0" shadow="0">
      <root>
        <mxCell id="0" />
        <mxCell id="1" parent="0" />
        <mxCell id="YUiSV8p8lnKAEg17Tau_-8" style="edgeStyle=orthogonalEdgeStyle;rounded=0;orthogonalLoop=1;jettySize=auto;html=1;entryX=0.5;entryY=0;entryDx=0;entryDy=0;" parent="1" source="YUiSV8p8lnKAEg17Tau_-1" target="YUiSV8p8lnKAEg17Tau_-3" edge="1">
          <mxGeometry relative="1" as="geometry" />
        </mxCell>
        <mxCell id="YUiSV8p8lnKAEg17Tau_-1" value="draw start" style="ellipse;whiteSpace=wrap;html=1;aspect=fixed;" parent="1" vertex="1">
          <mxGeometry x="160" y="40" width="80" height="80" as="geometry" />
        </mxCell>
        <mxCell id="YUiSV8p8lnKAEg17Tau_-10" style="edgeStyle=orthogonalEdgeStyle;rounded=0;orthogonalLoop=1;jettySize=auto;html=1;entryX=0.5;entryY=0;entryDx=0;entryDy=0;" parent="1" source="YUiSV8p8lnKAEg17Tau_-3" target="YUiSV8p8lnKAEg17Tau_-9" edge="1">
          <mxGeometry relative="1" as="geometry" />
        </mxCell>
        <mxCell id="YUiSV8p8lnKAEg17Tau_-3" value="beregn delta" style="rounded=0;whiteSpace=wrap;html=1;" parent="1" vertex="1">
          <mxGeometry x="140" y="170" width="120" height="60" as="geometry" />
        </mxCell>
        <mxCell id="YUiSV8p8lnKAEg17Tau_-4" value="delta" style="strokeWidth=2;html=1;shape=mxgraph.flowchart.stored_data;whiteSpace=wrap;" parent="1" vertex="1">
          <mxGeometry x="330" y="170" width="100" height="60" as="geometry" />
        </mxCell>
        <mxCell id="YUiSV8p8lnKAEg17Tau_-7" style="edgeStyle=orthogonalEdgeStyle;rounded=0;orthogonalLoop=1;jettySize=auto;html=1;entryX=1;entryY=0.75;entryDx=0;entryDy=0;" parent="1" source="YUiSV8p8lnKAEg17Tau_-5" target="YUiSV8p8lnKAEg17Tau_-3" edge="1">
          <mxGeometry relative="1" as="geometry" />
        </mxCell>
        <mxCell id="YUiSV8p8lnKAEg17Tau_-5" value="deltaTime" style="strokeWidth=2;html=1;shape=mxgraph.flowchart.stored_data;whiteSpace=wrap;" parent="1" vertex="1">
          <mxGeometry x="330" y="280" width="100" height="60" as="geometry" />
        </mxCell>
        <mxCell id="YUiSV8p8lnKAEg17Tau_-6" style="edgeStyle=orthogonalEdgeStyle;rounded=0;orthogonalLoop=1;jettySize=auto;html=1;entryX=0;entryY=0.5;entryDx=0;entryDy=0;entryPerimeter=0;" parent="1" source="YUiSV8p8lnKAEg17Tau_-3" target="YUiSV8p8lnKAEg17Tau_-4" edge="1">
          <mxGeometry relative="1" as="geometry" />
        </mxCell>
        <mxCell id="YUiSV8p8lnKAEg17Tau_-9" value="sæt deltaTime til tiden" style="rounded=0;whiteSpace=wrap;html=1;" parent="1" vertex="1">
          <mxGeometry x="140" y="310" width="120" height="60" as="geometry" />
        </mxCell>
        <mxCell id="YUiSV8p8lnKAEg17Tau_-11" style="edgeStyle=orthogonalEdgeStyle;rounded=0;orthogonalLoop=1;jettySize=auto;html=1;entryX=0.04;entryY=0.811;entryDx=0;entryDy=0;entryPerimeter=0;" parent="1" source="YUiSV8p8lnKAEg17Tau_-9" target="YUiSV8p8lnKAEg17Tau_-5" edge="1">
          <mxGeometry relative="1" as="geometry" />
        </mxCell>
        <mxCell id="YUiSV8p8lnKAEg17Tau_-31" style="edgeStyle=orthogonalEdgeStyle;rounded=0;orthogonalLoop=1;jettySize=auto;html=1;" parent="1" source="YUiSV8p8lnKAEg17Tau_-12" edge="1">
          <mxGeometry relative="1" as="geometry">
            <mxPoint x="310" y="480" as="targetPoint" />
          </mxGeometry>
        </mxCell>
        <mxCell id="YUiSV8p8lnKAEg17Tau_-12" value="Er sted hjem" style="strokeWidth=2;html=1;shape=mxgraph.flowchart.decision;whiteSpace=wrap;" parent="1" vertex="1">
          <mxGeometry x="150" y="430" width="100" height="100" as="geometry" />
        </mxCell>
        <mxCell id="YUiSV8p8lnKAEg17Tau_-13" style="edgeStyle=orthogonalEdgeStyle;rounded=0;orthogonalLoop=1;jettySize=auto;html=1;entryX=0.5;entryY=0;entryDx=0;entryDy=0;entryPerimeter=0;" parent="1" source="YUiSV8p8lnKAEg17Tau_-9" target="YUiSV8p8lnKAEg17Tau_-12" edge="1">
          <mxGeometry relative="1" as="geometry" />
        </mxCell>
        <mxCell id="YUiSV8p8lnKAEg17Tau_-14" value="sted" style="strokeWidth=2;html=1;shape=mxgraph.flowchart.stored_data;whiteSpace=wrap;" parent="1" vertex="1">
          <mxGeometry x="20" y="620" width="100" height="60" as="geometry" />
        </mxCell>
        <mxCell id="YUiSV8p8lnKAEg17Tau_-37" style="edgeStyle=orthogonalEdgeStyle;rounded=0;orthogonalLoop=1;jettySize=auto;html=1;entryX=0;entryY=0.5;entryDx=0;entryDy=0;" parent="1" source="YUiSV8p8lnKAEg17Tau_-15" target="YUiSV8p8lnKAEg17Tau_-34" edge="1">
          <mxGeometry relative="1" as="geometry" />
        </mxCell>
        <mxCell id="YUiSV8p8lnKAEg17Tau_-15" value="Er sted mat regn" style="strokeWidth=2;html=1;shape=mxgraph.flowchart.decision;whiteSpace=wrap;" parent="1" vertex="1">
          <mxGeometry x="150" y="600" width="100" height="100" as="geometry" />
        </mxCell>
        <mxCell id="YUiSV8p8lnKAEg17Tau_-16" style="edgeStyle=orthogonalEdgeStyle;rounded=0;orthogonalLoop=1;jettySize=auto;html=1;entryX=0.5;entryY=0;entryDx=0;entryDy=0;entryPerimeter=0;" parent="1" source="YUiSV8p8lnKAEg17Tau_-12" target="YUiSV8p8lnKAEg17Tau_-15" edge="1">
          <mxGeometry relative="1" as="geometry" />
        </mxCell>
        <mxCell id="YUiSV8p8lnKAEg17Tau_-17" style="edgeStyle=orthogonalEdgeStyle;rounded=0;orthogonalLoop=1;jettySize=auto;html=1;entryX=0;entryY=0.5;entryDx=0;entryDy=0;entryPerimeter=0;" parent="1" source="YUiSV8p8lnKAEg17Tau_-14" target="YUiSV8p8lnKAEg17Tau_-12" edge="1">
          <mxGeometry relative="1" as="geometry">
            <Array as="points">
              <mxPoint x="70" y="480" />
            </Array>
          </mxGeometry>
        </mxCell>
        <mxCell id="YUiSV8p8lnKAEg17Tau_-18" style="edgeStyle=orthogonalEdgeStyle;rounded=0;orthogonalLoop=1;jettySize=auto;html=1;entryX=0;entryY=0.5;entryDx=0;entryDy=0;entryPerimeter=0;" parent="1" source="YUiSV8p8lnKAEg17Tau_-14" target="YUiSV8p8lnKAEg17Tau_-15" edge="1">
          <mxGeometry relative="1" as="geometry" />
        </mxCell>
        <mxCell id="YUiSV8p8lnKAEg17Tau_-38" style="edgeStyle=orthogonalEdgeStyle;rounded=0;orthogonalLoop=1;jettySize=auto;html=1;entryX=0;entryY=0.5;entryDx=0;entryDy=0;" parent="1" source="YUiSV8p8lnKAEg17Tau_-19" target="YUiSV8p8lnKAEg17Tau_-35" edge="1">
          <mxGeometry relative="1" as="geometry" />
        </mxCell>
        <mxCell id="YUiSV8p8lnKAEg17Tau_-19" value="Er sted minus på venus" style="strokeWidth=2;html=1;shape=mxgraph.flowchart.decision;whiteSpace=wrap;" parent="1" vertex="1">
          <mxGeometry x="150" y="770" width="100" height="100" as="geometry" />
        </mxCell>
        <mxCell id="YUiSV8p8lnKAEg17Tau_-20" style="edgeStyle=orthogonalEdgeStyle;rounded=0;orthogonalLoop=1;jettySize=auto;html=1;entryX=0.5;entryY=0;entryDx=0;entryDy=0;entryPerimeter=0;" parent="1" source="YUiSV8p8lnKAEg17Tau_-15" target="YUiSV8p8lnKAEg17Tau_-19" edge="1">
          <mxGeometry relative="1" as="geometry" />
        </mxCell>
        <mxCell id="YUiSV8p8lnKAEg17Tau_-21" style="edgeStyle=orthogonalEdgeStyle;rounded=0;orthogonalLoop=1;jettySize=auto;html=1;entryX=0;entryY=0.5;entryDx=0;entryDy=0;entryPerimeter=0;" parent="1" source="YUiSV8p8lnKAEg17Tau_-14" target="YUiSV8p8lnKAEg17Tau_-19" edge="1">
          <mxGeometry relative="1" as="geometry">
            <Array as="points">
              <mxPoint x="70" y="820" />
            </Array>
          </mxGeometry>
        </mxCell>
        <mxCell id="YUiSV8p8lnKAEg17Tau_-25" value="Nej" style="text;html=1;align=center;verticalAlign=middle;whiteSpace=wrap;rounded=0;" parent="1" vertex="1">
          <mxGeometry x="190" y="520" width="60" height="30" as="geometry" />
        </mxCell>
        <mxCell id="YUiSV8p8lnKAEg17Tau_-26" value="Nej" style="text;html=1;align=center;verticalAlign=middle;whiteSpace=wrap;rounded=0;" parent="1" vertex="1">
          <mxGeometry x="150" y="720" width="60" height="30" as="geometry" />
        </mxCell>
        <mxCell id="YUiSV8p8lnKAEg17Tau_-28" value="" style="edgeStyle=orthogonalEdgeStyle;rounded=0;orthogonalLoop=1;jettySize=auto;html=1;entryX=0;entryY=0.5;entryDx=0;entryDy=0;entryPerimeter=0;" parent="1" source="YUiSV8p8lnKAEg17Tau_-19" target="YUiSV8p8lnKAEg17Tau_-45" edge="1">
          <mxGeometry relative="1" as="geometry">
            <mxPoint x="200" y="870" as="sourcePoint" />
            <mxPoint x="200" y="950" as="targetPoint" />
            <Array as="points">
              <mxPoint x="200" y="1000" />
            </Array>
          </mxGeometry>
        </mxCell>
        <mxCell id="YUiSV8p8lnKAEg17Tau_-27" value="Nej" style="text;html=1;align=center;verticalAlign=middle;whiteSpace=wrap;rounded=0;" parent="1" vertex="1">
          <mxGeometry x="150" y="890" width="60" height="30" as="geometry" />
        </mxCell>
        <mxCell id="YUiSV8p8lnKAEg17Tau_-32" value="Hjem&lt;span style=&quot;color: rgba(0, 0, 0, 0); font-family: monospace; font-size: 0px; text-align: start; text-wrap-mode: nowrap;&quot;&gt;%3CmxGraphModel%3E%3Croot%3E%3CmxCell%20id%3D%220%22%2F%3E%3CmxCell%20id%3D%221%22%20parent%3D%220%22%2F%3E%3CmxCell%20id%3D%222%22%20value%3D%22Nej%22%20style%3D%22text%3Bhtml%3D1%3Balign%3Dcenter%3BverticalAlign%3Dmiddle%3BwhiteSpace%3Dwrap%3Brounded%3D0%3B%22%20vertex%3D%221%22%20parent%3D%221%22%3E%3CmxGeometry%20x%3D%22150%22%20y%3D%22550%22%20width%3D%2260%22%20height%3D%2230%22%20as%3D%22geometry%22%2F%3E%3C%2FmxCell%3E%3C%2Froot%3E%3C%2FmxGraphModel%3E&lt;/span&gt;" style="shape=process;whiteSpace=wrap;html=1;backgroundOutline=1;" parent="1" vertex="1">
          <mxGeometry x="310" y="450" width="120" height="60" as="geometry" />
        </mxCell>
        <mxCell id="YUiSV8p8lnKAEg17Tau_-34" value="Matematik regn" style="shape=process;whiteSpace=wrap;html=1;backgroundOutline=1;" parent="1" vertex="1">
          <mxGeometry x="310" y="620" width="120" height="60" as="geometry" />
        </mxCell>
        <mxCell id="YUiSV8p8lnKAEg17Tau_-35" value="Minus på venus" style="shape=process;whiteSpace=wrap;html=1;backgroundOutline=1;" parent="1" vertex="1">
          <mxGeometry x="310" y="790" width="120" height="60" as="geometry" />
        </mxCell>
        <mxCell id="YUiSV8p8lnKAEg17Tau_-40" value="Ja" style="text;html=1;align=center;verticalAlign=middle;whiteSpace=wrap;rounded=0;" parent="1" vertex="1">
          <mxGeometry x="240" y="450" width="60" height="30" as="geometry" />
        </mxCell>
        <mxCell id="YUiSV8p8lnKAEg17Tau_-41" value="Ja" style="text;html=1;align=center;verticalAlign=middle;whiteSpace=wrap;rounded=0;" parent="1" vertex="1">
          <mxGeometry x="250" y="620" width="60" height="30" as="geometry" />
        </mxCell>
        <mxCell id="YUiSV8p8lnKAEg17Tau_-42" value="Ja" style="text;html=1;align=center;verticalAlign=middle;whiteSpace=wrap;rounded=0;" parent="1" vertex="1">
          <mxGeometry x="500" y="480" width="60" height="30" as="geometry" />
        </mxCell>
        <mxCell id="YUiSV8p8lnKAEg17Tau_-43" value="Ja" style="text;html=1;align=center;verticalAlign=middle;whiteSpace=wrap;rounded=0;" parent="1" vertex="1">
          <mxGeometry x="250" y="790" width="60" height="30" as="geometry" />
        </mxCell>
        <mxCell id="YUiSV8p8lnKAEg17Tau_-52" style="edgeStyle=orthogonalEdgeStyle;rounded=0;orthogonalLoop=1;jettySize=auto;html=1;entryX=0;entryY=0.5;entryDx=0;entryDy=0;" parent="1" source="YUiSV8p8lnKAEg17Tau_-45" target="YUiSV8p8lnKAEg17Tau_-51" edge="1">
          <mxGeometry relative="1" as="geometry" />
        </mxCell>
        <mxCell id="YUiSV8p8lnKAEg17Tau_-80" style="edgeStyle=orthogonalEdgeStyle;rounded=0;orthogonalLoop=1;jettySize=auto;html=1;entryX=0.5;entryY=1;entryDx=0;entryDy=0;" parent="1" source="YUiSV8p8lnKAEg17Tau_-45" target="YUiSV8p8lnKAEg17Tau_-65" edge="1">
          <mxGeometry relative="1" as="geometry" />
        </mxCell>
        <mxCell id="YUiSV8p8lnKAEg17Tau_-45" value="Er blinktimeren færdig" style="strokeWidth=2;html=1;shape=mxgraph.flowchart.decision;whiteSpace=wrap;" parent="1" vertex="1">
          <mxGeometry x="520" y="950" width="100" height="100" as="geometry" />
        </mxCell>
        <mxCell id="YUiSV8p8lnKAEg17Tau_-48" style="edgeStyle=orthogonalEdgeStyle;rounded=0;orthogonalLoop=1;jettySize=auto;html=1;entryX=0;entryY=0.5;entryDx=0;entryDy=0;entryPerimeter=0;" parent="1" source="YUiSV8p8lnKAEg17Tau_-35" target="YUiSV8p8lnKAEg17Tau_-45" edge="1">
          <mxGeometry relative="1" as="geometry">
            <Array as="points">
              <mxPoint x="460" y="820" />
              <mxPoint x="460" y="1000" />
            </Array>
          </mxGeometry>
        </mxCell>
        <mxCell id="YUiSV8p8lnKAEg17Tau_-49" style="edgeStyle=orthogonalEdgeStyle;rounded=0;orthogonalLoop=1;jettySize=auto;html=1;entryX=0;entryY=0.5;entryDx=0;entryDy=0;entryPerimeter=0;" parent="1" source="YUiSV8p8lnKAEg17Tau_-34" target="YUiSV8p8lnKAEg17Tau_-45" edge="1">
          <mxGeometry relative="1" as="geometry">
            <Array as="points">
              <mxPoint x="460" y="650" />
              <mxPoint x="460" y="1000" />
            </Array>
          </mxGeometry>
        </mxCell>
        <mxCell id="YUiSV8p8lnKAEg17Tau_-50" style="edgeStyle=orthogonalEdgeStyle;rounded=0;orthogonalLoop=1;jettySize=auto;html=1;entryX=0;entryY=0.5;entryDx=0;entryDy=0;entryPerimeter=0;" parent="1" source="YUiSV8p8lnKAEg17Tau_-32" target="YUiSV8p8lnKAEg17Tau_-45" edge="1">
          <mxGeometry relative="1" as="geometry">
            <Array as="points">
              <mxPoint x="460" y="480" />
              <mxPoint x="460" y="1000" />
            </Array>
          </mxGeometry>
        </mxCell>
        <mxCell id="YUiSV8p8lnKAEg17Tau_-51" value="Blink" style="rounded=0;whiteSpace=wrap;html=1;" parent="1" vertex="1">
          <mxGeometry x="660" y="970" width="120" height="60" as="geometry" />
        </mxCell>
        <mxCell id="YUiSV8p8lnKAEg17Tau_-59" value="Ja" style="text;html=1;align=center;verticalAlign=middle;whiteSpace=wrap;rounded=0;" parent="1" vertex="1">
          <mxGeometry x="610" y="970" width="60" height="30" as="geometry" />
        </mxCell>
        <mxCell id="YUiSV8p8lnKAEg17Tau_-92" style="edgeStyle=orthogonalEdgeStyle;rounded=0;orthogonalLoop=1;jettySize=auto;html=1;entryX=0.5;entryY=1;entryDx=0;entryDy=0;" parent="1" source="YUiSV8p8lnKAEg17Tau_-64" target="YUiSV8p8lnKAEg17Tau_-74" edge="1">
          <mxGeometry relative="1" as="geometry" />
        </mxCell>
        <mxCell id="YUiSV8p8lnKAEg17Tau_-64" value="Bevæg Partiklen" style="rounded=0;whiteSpace=wrap;html=1;" parent="1" vertex="1">
          <mxGeometry x="830" y="797" width="120" height="60" as="geometry" />
        </mxCell>
        <mxCell id="YUiSV8p8lnKAEg17Tau_-94" style="edgeStyle=orthogonalEdgeStyle;rounded=0;orthogonalLoop=1;jettySize=auto;html=1;entryX=0;entryY=0.5;entryDx=0;entryDy=0;" parent="1" source="YUiSV8p8lnKAEg17Tau_-65" target="YUiSV8p8lnKAEg17Tau_-63" edge="1">
          <mxGeometry relative="1" as="geometry" />
        </mxCell>
        <mxCell id="YUiSV8p8lnKAEg17Tau_-99" style="edgeStyle=orthogonalEdgeStyle;rounded=0;orthogonalLoop=1;jettySize=auto;html=1;entryX=0.5;entryY=1;entryDx=0;entryDy=0;" parent="1" source="YUiSV8p8lnKAEg17Tau_-65" target="YUiSV8p8lnKAEg17Tau_-100" edge="1">
          <mxGeometry relative="1" as="geometry">
            <mxPoint x="510" y="610" as="targetPoint" />
            <Array as="points">
              <mxPoint x="520" y="870" />
            </Array>
          </mxGeometry>
        </mxCell>
        <mxCell id="YUiSV8p8lnKAEg17Tau_-65" value="Er der flere partikler" style="rhombus;whiteSpace=wrap;html=1;" parent="1" vertex="1">
          <mxGeometry x="530" y="830" width="80" height="80" as="geometry" />
        </mxCell>
        <mxCell id="YUiSV8p8lnKAEg17Tau_-69" value="Nej" style="text;html=1;align=center;verticalAlign=middle;whiteSpace=wrap;rounded=0;" parent="1" vertex="1">
          <mxGeometry x="500" y="820" width="60" height="30" as="geometry" />
        </mxCell>
        <mxCell id="YUiSV8p8lnKAEg17Tau_-79" style="edgeStyle=orthogonalEdgeStyle;rounded=0;orthogonalLoop=1;jettySize=auto;html=1;entryX=1;entryY=1;entryDx=0;entryDy=0;" parent="1" source="YUiSV8p8lnKAEg17Tau_-71" target="YUiSV8p8lnKAEg17Tau_-65" edge="1">
          <mxGeometry relative="1" as="geometry" />
        </mxCell>
        <mxCell id="YUiSV8p8lnKAEg17Tau_-71" value="Partikler" style="strokeWidth=2;html=1;shape=mxgraph.flowchart.stored_data;whiteSpace=wrap;" parent="1" vertex="1">
          <mxGeometry x="670" y="880" width="100" height="60" as="geometry" />
        </mxCell>
        <mxCell id="YUiSV8p8lnKAEg17Tau_-93" style="edgeStyle=orthogonalEdgeStyle;rounded=0;orthogonalLoop=1;jettySize=auto;html=1;entryX=1;entryY=0.5;entryDx=0;entryDy=0;" parent="1" source="YUiSV8p8lnKAEg17Tau_-74" target="YUiSV8p8lnKAEg17Tau_-77" edge="1">
          <mxGeometry relative="1" as="geometry" />
        </mxCell>
        <mxCell id="YUiSV8p8lnKAEg17Tau_-74" value="Tegn Partiklen" style="rounded=0;whiteSpace=wrap;html=1;" parent="1" vertex="1">
          <mxGeometry x="830" y="710" width="120" height="60" as="geometry" />
        </mxCell>
        <mxCell id="YUiSV8p8lnKAEg17Tau_-83" style="edgeStyle=orthogonalEdgeStyle;rounded=0;orthogonalLoop=1;jettySize=auto;html=1;entryX=0.5;entryY=0;entryDx=0;entryDy=0;" parent="1" source="YUiSV8p8lnKAEg17Tau_-77" target="YUiSV8p8lnKAEg17Tau_-82" edge="1">
          <mxGeometry relative="1" as="geometry">
            <Array as="points">
              <mxPoint x="790" y="690" />
              <mxPoint x="720" y="690" />
            </Array>
          </mxGeometry>
        </mxCell>
        <mxCell id="YUiSV8p8lnKAEg17Tau_-95" style="edgeStyle=orthogonalEdgeStyle;rounded=0;orthogonalLoop=1;jettySize=auto;html=1;entryX=0.5;entryY=0;entryDx=0;entryDy=0;" parent="1" source="YUiSV8p8lnKAEg17Tau_-77" target="YUiSV8p8lnKAEg17Tau_-65" edge="1">
          <mxGeometry relative="1" as="geometry">
            <mxPoint x="580" y="790" as="targetPoint" />
          </mxGeometry>
        </mxCell>
        <mxCell id="YUiSV8p8lnKAEg17Tau_-77" value="Er partiklen død" style="rhombus;whiteSpace=wrap;html=1;" parent="1" vertex="1">
          <mxGeometry x="750" y="595" width="80" height="80" as="geometry" />
        </mxCell>
        <mxCell id="YUiSV8p8lnKAEg17Tau_-96" style="edgeStyle=orthogonalEdgeStyle;rounded=0;orthogonalLoop=1;jettySize=auto;html=1;" parent="1" source="YUiSV8p8lnKAEg17Tau_-82" edge="1">
          <mxGeometry relative="1" as="geometry">
            <mxPoint x="570" y="830" as="targetPoint" />
          </mxGeometry>
        </mxCell>
        <mxCell id="YUiSV8p8lnKAEg17Tau_-82" value="Dræb Partiklen" style="rounded=0;whiteSpace=wrap;html=1;" parent="1" vertex="1">
          <mxGeometry x="660" y="710" width="120" height="60" as="geometry" />
        </mxCell>
        <mxCell id="YUiSV8p8lnKAEg17Tau_-88" style="edgeStyle=orthogonalEdgeStyle;rounded=0;orthogonalLoop=1;jettySize=auto;html=1;entryX=0;entryY=0.5;entryDx=0;entryDy=0;" parent="1" source="YUiSV8p8lnKAEg17Tau_-63" target="YUiSV8p8lnKAEg17Tau_-64" edge="1">
          <mxGeometry relative="1" as="geometry" />
        </mxCell>
        <mxCell id="YUiSV8p8lnKAEg17Tau_-63" value="Vælg næste partikel" style="rounded=0;whiteSpace=wrap;html=1;" parent="1" vertex="1">
          <mxGeometry x="660" y="797" width="120" height="60" as="geometry" />
        </mxCell>
        <mxCell id="YUiSV8p8lnKAEg17Tau_-68" value="Ja" style="text;html=1;align=center;verticalAlign=middle;whiteSpace=wrap;rounded=0;" parent="1" vertex="1">
          <mxGeometry x="585" y="840" width="60" height="30" as="geometry" />
        </mxCell>
        <mxCell id="YUiSV8p8lnKAEg17Tau_-97" value="Nej" style="text;html=1;align=center;verticalAlign=middle;whiteSpace=wrap;rounded=0;" parent="1" vertex="1">
          <mxGeometry x="700" y="610" width="60" height="30" as="geometry" />
        </mxCell>
        <mxCell id="YUiSV8p8lnKAEg17Tau_-98" value="Ja" style="text;html=1;align=center;verticalAlign=middle;whiteSpace=wrap;rounded=0;" parent="1" vertex="1">
          <mxGeometry x="720" y="660" width="60" height="30" as="geometry" />
        </mxCell>
        <mxCell id="YUiSV8p8lnKAEg17Tau_-103" style="edgeStyle=orthogonalEdgeStyle;rounded=0;orthogonalLoop=1;jettySize=auto;html=1;entryX=0;entryY=0.5;entryDx=0;entryDy=0;" parent="1" source="YUiSV8p8lnKAEg17Tau_-100" target="YUiSV8p8lnKAEg17Tau_-104" edge="1">
          <mxGeometry relative="1" as="geometry">
            <mxPoint x="620" y="570" as="targetPoint" />
          </mxGeometry>
        </mxCell>
        <mxCell id="YUiSV8p8lnKAEg17Tau_-107" style="edgeStyle=orthogonalEdgeStyle;rounded=0;orthogonalLoop=1;jettySize=auto;html=1;entryX=0.5;entryY=1;entryDx=0;entryDy=0;" parent="1" source="YUiSV8p8lnKAEg17Tau_-100" target="YUiSV8p8lnKAEg17Tau_-106" edge="1">
          <mxGeometry relative="1" as="geometry" />
        </mxCell>
        <mxCell id="YUiSV8p8lnKAEg17Tau_-100" value="Er sted ikke hjem" style="rhombus;whiteSpace=wrap;html=1;" parent="1" vertex="1">
          <mxGeometry x="480" y="530" width="80" height="80" as="geometry" />
        </mxCell>
        <mxCell id="YUiSV8p8lnKAEg17Tau_-102" value="" style="endArrow=classic;html=1;rounded=0;entryX=0;entryY=0.5;entryDx=0;entryDy=0;exitX=0.697;exitY=0.022;exitDx=0;exitDy=0;exitPerimeter=0;jumpStyle=arc;jumpSize=12;" parent="1" source="YUiSV8p8lnKAEg17Tau_-14" target="YUiSV8p8lnKAEg17Tau_-100" edge="1">
          <mxGeometry width="50" height="50" relative="1" as="geometry">
            <mxPoint x="130" y="570" as="sourcePoint" />
            <mxPoint x="290" y="560" as="targetPoint" />
            <Array as="points">
              <mxPoint x="90" y="570" />
            </Array>
          </mxGeometry>
        </mxCell>
        <mxCell id="YUiSV8p8lnKAEg17Tau_-104" value="Stop" style="ellipse;whiteSpace=wrap;html=1;" parent="1" vertex="1">
          <mxGeometry x="620" y="530" width="120" height="80" as="geometry" />
        </mxCell>
        <mxCell id="YUiSV8p8lnKAEg17Tau_-105" value="Nej" style="text;html=1;align=center;verticalAlign=middle;whiteSpace=wrap;rounded=0;" parent="1" vertex="1">
          <mxGeometry x="555" y="540" width="60" height="30" as="geometry" />
        </mxCell>
        <mxCell id="YUiSV8p8lnKAEg17Tau_-108" style="edgeStyle=orthogonalEdgeStyle;rounded=0;orthogonalLoop=1;jettySize=auto;html=1;entryX=0;entryY=0;entryDx=0;entryDy=0;" parent="1" source="YUiSV8p8lnKAEg17Tau_-106" target="YUiSV8p8lnKAEg17Tau_-104" edge="1">
          <mxGeometry relative="1" as="geometry">
            <Array as="points">
              <mxPoint x="638" y="420" />
            </Array>
          </mxGeometry>
        </mxCell>
        <mxCell id="YUiSV8p8lnKAEg17Tau_-114" style="edgeStyle=orthogonalEdgeStyle;rounded=0;orthogonalLoop=1;jettySize=auto;html=1;entryX=0.5;entryY=1;entryDx=0;entryDy=0;" parent="1" source="YUiSV8p8lnKAEg17Tau_-106" target="YUiSV8p8lnKAEg17Tau_-112" edge="1">
          <mxGeometry relative="1" as="geometry" />
        </mxCell>
        <mxCell id="YUiSV8p8lnKAEg17Tau_-106" value="Er der flere knapper" style="rhombus;whiteSpace=wrap;html=1;" parent="1" vertex="1">
          <mxGeometry x="480" y="360" width="80" height="80" as="geometry" />
        </mxCell>
        <mxCell id="YUiSV8p8lnKAEg17Tau_-110" style="edgeStyle=orthogonalEdgeStyle;rounded=0;orthogonalLoop=1;jettySize=auto;html=1;entryX=0;entryY=0.5;entryDx=0;entryDy=0;" parent="1" source="YUiSV8p8lnKAEg17Tau_-109" target="YUiSV8p8lnKAEg17Tau_-106" edge="1">
          <mxGeometry relative="1" as="geometry" />
        </mxCell>
        <mxCell id="YUiSV8p8lnKAEg17Tau_-109" value="Knapper" style="strokeWidth=2;html=1;shape=mxgraph.flowchart.stored_data;whiteSpace=wrap;" parent="1" vertex="1">
          <mxGeometry x="330" y="370" width="100" height="60" as="geometry" />
        </mxCell>
        <mxCell id="YUiSV8p8lnKAEg17Tau_-111" value="Nej" style="text;html=1;align=center;verticalAlign=middle;whiteSpace=wrap;rounded=0;" parent="1" vertex="1">
          <mxGeometry x="540" y="420" width="60" height="30" as="geometry" />
        </mxCell>
        <mxCell id="YUiSV8p8lnKAEg17Tau_-115" style="edgeStyle=orthogonalEdgeStyle;rounded=0;orthogonalLoop=1;jettySize=auto;html=1;entryX=0.5;entryY=1;entryDx=0;entryDy=0;" parent="1" source="YUiSV8p8lnKAEg17Tau_-112" target="YUiSV8p8lnKAEg17Tau_-113" edge="1">
          <mxGeometry relative="1" as="geometry" />
        </mxCell>
        <mxCell id="YUiSV8p8lnKAEg17Tau_-112" value="Vælg næste knap" style="rounded=0;whiteSpace=wrap;html=1;" parent="1" vertex="1">
          <mxGeometry x="460" y="270" width="120" height="60" as="geometry" />
        </mxCell>
        <mxCell id="YUiSV8p8lnKAEg17Tau_-121" style="edgeStyle=orthogonalEdgeStyle;rounded=0;orthogonalLoop=1;jettySize=auto;html=1;entryX=0;entryY=0.5;entryDx=0;entryDy=0;" parent="1" source="YUiSV8p8lnKAEg17Tau_-113" target="YUiSV8p8lnKAEg17Tau_-120" edge="1">
          <mxGeometry relative="1" as="geometry">
            <Array as="points">
              <mxPoint x="580" y="180" />
              <mxPoint x="580" y="180" />
            </Array>
          </mxGeometry>
        </mxCell>
        <mxCell id="YUiSV8p8lnKAEg17Tau_-122" style="edgeStyle=orthogonalEdgeStyle;rounded=0;orthogonalLoop=1;jettySize=auto;html=1;entryX=1;entryY=0.5;entryDx=0;entryDy=0;" parent="1" source="YUiSV8p8lnKAEg17Tau_-113" target="YUiSV8p8lnKAEg17Tau_-106" edge="1">
          <mxGeometry relative="1" as="geometry">
            <Array as="points">
              <mxPoint x="630" y="200" />
              <mxPoint x="630" y="400" />
            </Array>
          </mxGeometry>
        </mxCell>
        <mxCell id="YUiSV8p8lnKAEg17Tau_-113" value="Er knappen aktiv" style="rhombus;whiteSpace=wrap;html=1;" parent="1" vertex="1">
          <mxGeometry x="480" y="160" width="80" height="80" as="geometry" />
        </mxCell>
        <mxCell id="YUiSV8p8lnKAEg17Tau_-118" value="Ja" style="text;html=1;align=center;verticalAlign=middle;whiteSpace=wrap;rounded=0;" parent="1" vertex="1">
          <mxGeometry x="470" y="330" width="60" height="30" as="geometry" />
        </mxCell>
        <mxCell id="YUiSV8p8lnKAEg17Tau_-119" value="Ja" style="text;html=1;align=center;verticalAlign=middle;whiteSpace=wrap;rounded=0;" parent="1" vertex="1">
          <mxGeometry x="555" y="150" width="60" height="30" as="geometry" />
        </mxCell>
        <mxCell id="YUiSV8p8lnKAEg17Tau_-125" style="edgeStyle=orthogonalEdgeStyle;rounded=0;orthogonalLoop=1;jettySize=auto;html=1;entryX=1;entryY=0.5;entryDx=0;entryDy=0;" parent="1" source="YUiSV8p8lnKAEg17Tau_-120" target="YUiSV8p8lnKAEg17Tau_-106" edge="1">
          <mxGeometry relative="1" as="geometry">
            <Array as="points">
              <mxPoint x="720" y="400" />
            </Array>
          </mxGeometry>
        </mxCell>
        <mxCell id="YUiSV8p8lnKAEg17Tau_-120" value="Tegn knappen" style="rounded=0;whiteSpace=wrap;html=1;" parent="1" vertex="1">
          <mxGeometry x="660" y="150" width="120" height="60" as="geometry" />
        </mxCell>
        <mxCell id="YUiSV8p8lnKAEg17Tau_-126" value="Nej" style="text;html=1;align=center;verticalAlign=middle;whiteSpace=wrap;rounded=0;" parent="1" vertex="1">
          <mxGeometry x="555" y="200" width="60" height="30" as="geometry" />
        </mxCell>
        <mxCell id="mbAcNBdtc2FEMOWmcD2_-1" style="edgeStyle=orthogonalEdgeStyle;rounded=0;orthogonalLoop=1;jettySize=auto;html=1;entryX=0.65;entryY=0.892;entryDx=0;entryDy=0;entryPerimeter=0;" parent="1" source="YUiSV8p8lnKAEg17Tau_-51" target="YUiSV8p8lnKAEg17Tau_-65" edge="1">
          <mxGeometry relative="1" as="geometry">
            <Array as="points">
              <mxPoint x="620" y="970" />
              <mxPoint x="620" y="901" />
            </Array>
          </mxGeometry>
        </mxCell>
      </root>
    </mxGraphModel>
  </diagram>
</mxfile>
